HIERARCHY
ROOT Hips
{
	OFFSET -3.958830 18.904000 13.208200
	CHANNELS 6 Xposition Yposition Zposition Zrotation Yrotation Xrotation 
	JOINT LHipJoint
	{
		OFFSET 0.000000 0.000000 0.000000
		CHANNELS 3 Zrotation Yrotation Xrotation
		JOINT LeftUpLeg
		{
			OFFSET 1.800000 -1.400000 0.085000
			CHANNELS 3 Zrotation Yrotation Xrotation
			JOINT LeftLeg
			{
				OFFSET 2.215000 -6.000000 0.000000
				CHANNELS 3 Zrotation Yrotation Xrotation
				JOINT LeftFoot
				{
					OFFSET 2.500000 -6.900000 0.000000
					CHANNELS 3 Zrotation Yrotation Xrotation
					JOINT LeftToeBase
					{
						OFFSET 0.200000 -0.500000 1.950000
						CHANNELS 3 Zrotation Yrotation Xrotation
						End Site
						{
							OFFSET 0.000000 0.000000 0.000000
						}
					}
				}
			}
		}
	}
	JOINT RHipJoint
	{
		OFFSET 0.000000 0.000000 0.000000
		CHANNELS 3 Zrotation Yrotation Xrotation
		JOINT RightUpLeg
		{
			OFFSET -1.800000 -1.400000 0.085000
			CHANNELS 3 Zrotation Yrotation Xrotation
			JOINT RightLeg
			{
				OFFSET -2.215000 -6.000000 0.000000
				CHANNELS 3 Zrotation Yrotation Xrotation
				JOINT RightFoot
				{
					OFFSET -2.500000 -6.900000 0.000000
					CHANNELS 3 Zrotation Yrotation Xrotation
					JOINT RightToeBase
					{
						OFFSET -0.200000 -0.500000 1.950000
						CHANNELS 3 Zrotation Yrotation Xrotation
						End Site
						{
							OFFSET 0.000000 0.000000 0.000000
						}
					}
				}
			}
		}
	}
	JOINT LowerBack
	{
		OFFSET 0.000000 0.000000 0.000000
		CHANNELS 3 Zrotation Yrotation Xrotation
		JOINT Spine
		{
			OFFSET -0.087000 1.940000 -0.288900
			CHANNELS 3 Zrotation Yrotation Xrotation
			JOINT Spine1
			{
				OFFSET 0.000000 1.950000 0.060000
				CHANNELS 3 Zrotation Yrotation Xrotation
				JOINT Neck
				{
					OFFSET 0.000000 0.000000 0.000000
					CHANNELS 3 Zrotation Yrotation Xrotation
					JOINT Neck1
					{
						OFFSET 0.000000 1.600000 0.340000
						CHANNELS 3 Zrotation Yrotation Xrotation
						JOINT Head
						{
							OFFSET 0.000000 1.667000 -0.240000
							CHANNELS 3 Zrotation Yrotation Xrotation
							End Site
							{
								OFFSET 0.000000 0.000000 0.000000
							}
						}
					}
				}
				JOINT LeftShoulder
				{
					OFFSET 0.000000 0.000000 0.000000
					CHANNELS 3 Zrotation Yrotation Xrotation
					JOINT LeftArm
					{
						OFFSET 2.700000 1.550000 -0.730000
						CHANNELS 3 Zrotation Yrotation Xrotation
						JOINT LeftForeArm
						{
							OFFSET 5.450000 0.000000 0.000000
							CHANNELS 3 Zrotation Yrotation Xrotation
							JOINT LeftHand
							{
								OFFSET 3.450000 0.000000 0.000000
								CHANNELS 3 Zrotation Yrotation Xrotation
								JOINT LeftHandIndex1
								{
									OFFSET 0.750000 0.000000 0.000000
									CHANNELS 3 Zrotation Yrotation Xrotation
									End Site
									{
										OFFSET 0.000000 0.000000 0.000000
									}
								}
							}
						}
					}
				}
				JOINT RightShoulder
				{
					OFFSET 0.000000 0.000000 0.000000
					CHANNELS 3 Zrotation Yrotation Xrotation
					JOINT RightArm
					{
						OFFSET -2.700000 1.550000 -0.730000
						CHANNELS 3 Zrotation Yrotation Xrotation
						JOINT RightForeArm
						{
							OFFSET -5.450000 0.000000 0.000000
							CHANNELS 3 Zrotation Yrotation Xrotation
							JOINT RightHand
							{
								OFFSET -3.450000 0.000000 0.000000
								CHANNELS 3 Zrotation Yrotation Xrotation
								JOINT RightHandIndex1
								{
									OFFSET -0.750000 0.000000 0.000000
									CHANNELS 3 Zrotation Yrotation Xrotation
									End Site
									{
										OFFSET 0.000000 0.000000 0.000000
									}
								}
							}
						}
					}
				}
			}
		}
	}
}
MOTION
Frames: 13
Frame Time: 0.016667
-0.084410 15.635930 -7.270900 -2.479384 -40.795480 27.869605 -15.457962 10.719665 1.556648 35.898767 1.597540 -16.131395 0.852441 8.770939 20.838211 0.108135 6.154313 2.071847 0.031800 -0.041300 0.199870 19.081547 -5.038552 8.396919 -73.934815 -3.075763 -44.241485 69.120089 8.129850 -13.365387 -1.283780 -6.185856 2.058128 -0.100630 -0.208960 0.059170 -4.948881 -3.137484 -9.878699 27.673537 -14.125762 21.087257 -18.584801 -7.100183 -3.670709 7.869523 -10.797422 -9.476889 -24.547287 19.171162 37.446334 -18.952450 15.599030 -10.262840 -31.064830 1.766824 -0.163407 -46.638260 19.382257 -9.168111 -6.607458 -0.806907 -1.077997 -3.614639 2.571843 0.411970 -0.143380 0.264930 -0.078780 14.097513 2.777107 7.145874 58.910189 -10.818871 -15.589751 99.713014 70.777748 61.922071 3.215502 -0.476272 -0.061220 0.065490 0.058250 -0.164650 
-0.097390 15.547130 -7.206350 -2.708546 -40.585638 27.145786 -15.477714 10.815153 1.506087 36.741966 1.948946 -14.461700 2.154253 8.485050 20.041531 0.144796 6.159229 2.076768 0.016870 -0.066850 0.202770 19.055388 -5.014103 8.405433 -75.269990 -3.088184 -42.355177 71.758240 8.518079 -13.759892 -1.291067 -6.145940 2.067330 -0.122820 -0.226070 0.062420 -4.905689 -3.292908 -9.875524 28.777457 -14.161055 20.102525 -18.402522 -7.084197 -4.354325 8.347200 -10.734903 -9.477439 -24.271646 19.267271 38.836831 -19.533200 15.762120 -9.359060 -31.136332 2.964175 -0.522585 -48.668004 21.399672 -9.839859 -6.343066 0.916646 -1.129229 -3.641081 2.521882 0.418550 -0.150090 0.270250 -0.094090 13.146975 1.758906 7.420026 57.502490 -12.072623 -17.618733 113.638901 69.897492 77.753074 2.957046 -0.247784 -0.055660 0.046710 0.065760 -0.171730 
-0.103350 15.492480 -7.131340 -2.710211 -40.197601 26.287912 -15.498430 10.828854 1.535170 37.594049 2.107871 -12.572703 2.197281 8.415555 18.632655 0.188851 6.221692 2.071327 0.020000 -0.061640 0.196250 19.026951 -5.004383 8.352456 -75.897570 -3.028429 -40.835089 73.288058 8.151166 -13.551748 -1.297427 -6.173338 2.057781 -0.121120 -0.219020 0.062970 -4.885109 -3.384176 -9.836891 29.814513 -14.227534 18.668271 -17.830542 -7.278915 -4.705957 8.365500 -10.961968 -9.346031 -24.658503 20.048143 39.741851 -18.777370 15.898530 -8.103810 -31.016339 3.998197 -0.621232 -51.137089 23.007978 -10.534814 -5.899186 2.322766 -1.114766 -3.679634 2.491423 0.409130 -0.145900 0.265730 -0.089630 12.926256 1.041733 7.186787 54.636345 -12.007580 -17.367238 123.527440 68.981765 90.910349 2.615528 -0.495113 -0.049660 0.041490 0.064010 -0.164710 
-0.100440 15.505690 -7.081860 -2.380398 -39.254343 24.848523 -15.522828 10.845086 1.616380 38.246819 2.192056 -11.557606 2.048477 8.425943 17.773869 0.225743 6.295108 2.054195 0.021700 -0.060260 0.194810 18.988446 -5.014620 8.270517 -75.375009 -2.689280 -39.486587 73.707860 6.933296 -12.682972 -1.312824 -6.279574 2.022182 -0.125430 -0.219700 0.063730 -4.856996 -3.501858 -9.810834 30.454137 -14.537376 18.052151 -17.526852 -7.652680 -4.940483 8.400657 -10.984484 -9.443412 -25.114990 20.477522 41.439193 -18.764960 15.627470 -6.971780 -31.595591 3.950021 -0.440224 -52.194694 24.290597 -10.887561 -5.602724 3.063998 -1.086892 -3.689572 2.471106 0.402850 -0.146940 0.268570 -0.085790 13.412908 1.148094 7.059186 52.609868 -11.739343 -16.406498 127.975517 68.025995 96.116386 2.513320 -0.707952 -0.040390 0.041490 0.062960 -0.157070 
-0.088260 15.561680 -7.043610 -1.853758 -37.991937 23.471716 -15.525362 10.808426 1.715185 38.568797 2.185847 -11.312298 1.635990 8.391024 16.837324 0.247528 6.308851 2.058515 0.015080 -0.068710 0.183080 18.974249 -5.071491 8.169780 -74.706455 -2.389248 -38.181475 73.660410 5.562175 -11.783586 -1.321444 -6.411465 1.983089 -0.133510 -0.207790 0.064620 -4.875209 -3.488160 -9.776213 30.947985 -14.723796 17.377469 -17.714230 -7.904307 -4.617256 8.420875 -10.922150 -9.726811 -25.233368 20.423908 42.412882 -18.552110 15.202230 -5.828570 -31.836005 3.347750 -0.010591 -52.533733 25.081045 -11.154570 -5.695522 3.094605 -1.103967 -3.690485 2.472575 0.389930 -0.139990 0.260800 -0.078610 13.602723 1.795399 7.150295 51.519253 -11.304907 -15.405653 127.361727 67.050138 93.897950 2.555140 -0.804265 -0.035550 0.041720 0.064110 -0.146500 
-0.068970 15.652850 -7.021650 -1.129173 -36.633344 22.197239 -15.509318 10.745783 1.812677 38.585897 2.137076 -11.706367 0.885009 8.443022 16.329850 0.250313 6.306173 2.064450 0.012050 -0.069800 0.165600 18.979200 -5.181317 8.049451 -73.624481 -2.129596 -37.531982 72.539939 3.852614 -10.534846 -1.326583 -6.577817 1.930829 -0.132480 -0.188950 0.057470 -4.927837 -3.352068 -9.723614 31.054177 -14.690624 16.819373 -17.896096 -8.013856 -3.905581 8.178323 -10.958370 -10.057332 -25.454537 20.102194 42.393787 -17.527940 14.281970 -5.229150 -31.323969 2.723300 0.528782 -52.658319 25.069733 -11.487486 -6.317957 1.953787 -1.179392 -3.671874 2.493271 0.379280 -0.137830 0.247780 -0.069110 13.603847 2.581161 7.293104 51.541523 -10.599949 -14.374479 124.234298 65.773133 87.612415 2.650719 -0.904770 -0.037000 0.052660 0.065530 -0.133430 
-0.031160 15.791550 -7.011650 0.211060 -34.936058 20.610126 -15.449881 10.775134 1.795779 37.424933 1.963337 -13.009093 0.825429 8.159860 16.270684 0.219990 6.073246 2.144169 0.011170 -0.068840 0.140140 19.009313 -5.428256 7.919129 -72.398945 -1.845112 -36.993449 69.984430 1.787333 -8.979041 -1.323969 -6.772687 1.868069 -0.135350 -0.173310 0.048550 -5.019648 -3.110647 -9.588196 31.104900 -14.576495 16.127652 -18.627712 -8.002183 -2.641229 7.989275 -11.091993 -10.897299 -26.236909 19.938673 42.126498 -16.242890 13.181190 -4.587050 -30.151290 1.360473 1.600983 -53.256305 24.921063 -12.180593 -6.327071 -1.188029 -1.088801 -3.619444 2.543078 0.372850 -0.145660 0.238590 -0.053190 12.925646 4.336904 7.778390 53.507749 -9.205845 -13.722023 117.788488 65.041729 77.710721 2.799247 -0.974823 -0.033560 0.060930 0.062880 -0.114340 
-0.002230 15.954960 -7.030730 1.517329 -33.124700 19.139025 -15.378902 10.803085 1.794210 36.149459 1.672486 -14.846421 0.842723 7.876887 16.652768 0.165528 5.820418 2.223008 0.038910 -0.029920 0.129090 19.044127 -5.733330 7.754954 -70.199613 -1.693190 -37.193172 66.417728 -0.820169 -6.542175 -1.314588 -7.001102 1.786118 -0.110390 -0.161860 0.044330 -5.118988 -2.792119 -9.455352 30.516790 -13.957792 16.013386 -18.811945 -7.610273 -1.102008 7.472988 -11.265614 -11.280226 -26.831214 19.081307 41.290004 -14.625380 11.423530 -5.237280 -28.595015 0.291158 2.400738 -52.496128 22.786419 -12.290153 -6.267582 -6.710670 -0.880451 -3.543442 2.643828 0.363800 -0.153420 0.232400 -0.033360 12.535120 5.754585 7.817202 54.685336 -6.980814 -12.516940 109.348649 64.589649 66.979128 2.907469 -1.100977 -0.024610 0.073830 0.051220 -0.096130 
0.034810 16.156530 -7.060850 2.812798 -31.111885 17.574892 -15.290588 10.875397 1.805784 34.398646 1.388209 -17.280488 0.844782 7.668658 17.711895 0.100131 5.586355 2.302680 0.036630 -0.029820 0.098490 19.079871 -6.098536 7.565688 -67.306380 -1.202756 -37.568050 61.851161 -3.316229 -3.712634 -1.256917 -7.182588 1.717332 -0.099810 -0.121690 0.038690 -5.227516 -2.452929 -9.336766 29.522396 -13.304501 16.322205 -19.202533 -7.154421 -0.263577 6.878059 -11.142055 -11.378675 -26.703740 17.803773 41.695619 -12.590430 9.435890 -4.616770 -28.278982 -1.048232 2.948256 -50.044593 21.021016 -11.467534 -6.224509 -8.972789 -0.758771 -3.521938 2.703998 0.345650 -0.139840 0.203100 -0.020400 13.402705 7.155627 7.713476 55.252556 -5.115103 -11.505106 99.344090 63.975553 56.272311 2.930863 -1.268465 -0.031530 0.092750 0.060010 -0.078070 
0.070390 16.360530 -7.099870 3.809012 -28.809753 16.225132 -15.189502 10.991396 1.837939 32.266632 1.065970 -20.091180 1.303963 7.357779 19.099829 0.040996 5.329593 2.399132 0.032560 -0.027050 0.063080 19.111982 -6.535192 7.320369 -64.091137 -0.618974 -38.301549 56.835582 -6.014119 0.027994 -1.168016 -7.326624 1.658262 -0.086430 -0.069390 0.040770 -5.322396 -2.094939 -9.217816 28.410300 -12.295093 16.858343 -19.074078 -6.363587 0.306527 6.103203 -10.765284 -11.161724 -25.746752 16.124098 42.352706 -10.410000 7.489130 -3.664210 -28.100808 -2.187766 3.097294 -47.016979 18.577368 -9.883010 -6.763661 -7.669947 -0.767965 -3.556882 2.734037 0.312520 -0.110900 0.169130 -0.001160 14.723227 8.172768 7.449441 55.162717 -3.619773 -10.950446 90.943567 62.328604 47.810254 2.854241 -1.453595 -0.035720 0.107470 0.065870 -0.054230 
0.112100 16.580020 -7.147050 4.517096 -26.295786 14.836359 -15.100477 11.143110 1.969465 30.067848 0.587747 -23.052859 1.574944 7.172456 21.018847 -0.015689 5.170070 2.457020 0.055970 0.007190 0.056600 19.111861 -7.012492 6.957771 -59.669982 0.085309 -39.090471 50.014930 -8.507701 4.606594 -1.036729 -7.317657 1.631865 -0.054790 -0.045300 0.043940 -5.349623 -1.808331 -9.092677 27.366095 -11.796375 18.101359 -18.779766 -5.977698 0.800556 5.410589 -10.470521 -10.878651 -24.984364 14.622472 42.622369 -8.982020 5.770250 -4.136990 -28.414212 -3.655312 3.318646 -44.353492 15.973336 -8.692967 -6.982250 -8.193359 -0.701379 -3.553332 2.778234 0.295790 -0.099890 0.158040 0.017140 16.393758 9.484491 7.043853 54.469706 -1.238678 -10.291572 85.265704 60.946009 42.543991 2.797180 -1.537743 -0.034540 0.125120 0.058400 -0.039110 
0.137680 16.784750 -7.180380 4.683181 -24.253900 13.427327 -15.030960 11.403678 2.147988 28.072211 0.114256 -25.407261 2.244626 7.001096 23.260865 -0.048025 5.127069 2.473521 0.063850 0.023260 0.047420 19.065812 -7.509695 6.505744 -54.250132 0.922346 -40.000160 42.866140 -10.625049 10.000035 -0.869205 -7.168911 1.649400 -0.033140 -0.024000 0.046410 -5.278174 -1.697424 -8.985203 25.853644 -11.185056 19.895936 -17.770062 -5.513431 0.818186 4.785119 -9.915987 -10.761263 -24.031769 13.684682 43.600748 -7.855620 4.926470 -3.698790 -29.450275 -5.506320 3.546739 -41.435571 13.355012 -7.288619 -7.365775 -7.520304 -0.683113 -3.566315 2.810662 0.277060 -0.081540 0.142220 0.023730 18.711881 11.000530 6.769879 52.613059 0.395819 -9.983236 79.910737 59.806872 38.112143 2.748162 -1.583517 -0.037310 0.129910 0.058560 -0.031920 
0.156260 16.991780 -7.229670 4.701836 -22.765420 12.416975 -14.981327 11.679523 2.375928 25.765966 -0.504766 -27.884619 3.155931 6.751871 25.698589 -0.069065 5.125513 2.480160 0.069130 0.031790 0.032860 18.995542 -7.978592 6.040357 -48.587414 1.845011 -41.454022 35.145957 -11.466981 15.019560 -0.673871 -6.760352 1.764272 -0.017290 0.001190 0.050440 -5.150749 -1.646130 -8.887010 23.882825 -10.484784 21.967808 -16.536338 -4.964812 0.765588 4.205179 -9.568767 -10.945184 -23.707711 13.506556 44.318555 -6.719850 4.501960 -3.019590 -29.963145 -7.407335 3.967782 -39.386116 11.148718 -6.496032 -7.845355 -8.440079 -0.592474 -3.567554 2.854481 0.263600 -0.063520 0.125010 0.033330 20.516883 12.869457 6.641210 50.796141 2.296209 -9.628824 75.735081 58.442673 34.601074 2.702002 -1.619105 -0.041820 0.132850 0.061170 -0.024860 
